<svg xmlns="http://www.w3.org/2000/svg" xmlns:xlink="http://www.w3.org/1999/xlink" xml:space="preserve" version="1.1" style="shape-rendering:geometricPrecision;text-rendering:geometricPrecision;image-rendering:optimizeQuality;" viewBox="0 0 198 440" x="0px" y="0px" fill-rule="evenodd" clip-rule="evenodd"><defs><style type="text/css">
   
    .fil0 {fill:black}
   
  </style></defs><g><path class="fil0" d="M176 198c0,33 -33,66 -66,66l-22 0c-33,0 -66,-33 -66,-66l0 -57c0,-12 -22,-12 -22,0l0 57c0,44 44,88 88,88l0 44 -57 0c-12,0 -12,22 0,22l135 0c13,0 13,-22 0,-22l-56 0 0 -44c44,0 88,-44 88,-88l0 -57c0,-12 -22,-12 -22,0l0 57z"/><path class="fil0" d="M110 242c24,0 44,-20 44,-44l0 -154c0,-24 -20,-44 -44,-44l-22 0c-24,0 -44,20 -44,44l0 154c0,24 20,44 44,44l22 0zm-1 -23c14,0 25,-11 25,-24l0 -148c0,-14 -11,-24 -25,-24l-21 0c-13,0 -24,11 -24,24l0 148c0,13 11,24 24,24l21 0z"/></g><text x="0" y="367" fill="#000000" font-size="5px" font-weight="bold" font-family="'Helvetica Neue', Helvetica, Arial-Unicode, Arial, Sans-serif">Created by Saifurrijal100</text><text x="0" y="372" fill="#000000" font-size="5px" font-weight="bold" font-family="'Helvetica Neue', Helvetica, Arial-Unicode, Arial, Sans-serif">from the Noun Project</text></svg>