<svg xmlns="http://www.w3.org/2000/svg" xmlns:xlink="http://www.w3.org/1999/xlink" version="1.1" x="0px" y="0px" viewBox="0 0 512 640" style="enable-background:new 0 0 512 512;" xml:space="preserve"><g><path d="M280.5,111.5c-11.3-5.9-24.9-5.1-35.4,2.3L163.8,171h-57.7c-18.7,0-34,15.5-34,34.3v101.5c0,18.7,15.3,34.2,34,34.2h57.7   l81.2,57.2c5.9,4.1,12.7,6.2,19.6,6.2c5.3,0,10.9-1.3,15.9-3.9c11.3-5.9,18.6-17.5,18.6-30.2V141.7   C299.1,128.9,291.8,117.4,280.5,111.5z M152.1,313h-46c-3.3,0-6-3-6-6.3V205.3c0-3.3,2.7-6.3,6-6.3h46V313z M271,370.3   c0,3.2-2.3,4.7-3.5,5.3c-1.2,0.6-3.7,1.4-6.3-0.4l-81.1-57.3V194.1l81.1-57.3c2.6-1.8,5.2-1.1,6.4-0.4c1.2,0.6,3.4,2.2,3.4,5.3   V370.3z"/><path d="M385.2,260.5c0-30.4-24.1-55.1-55.1-55.1v28c15,0,27.1,12.1,27.1,27.1s-12.1,27.1-27.1,27.1v28   C361.1,315.6,385.2,290.9,385.2,260.5z"/><path d="M330.1,150.7v28c45,0,81.8,36.7,81.8,81.8c0,45.1-36.8,81.8-81.8,81.8v28c61,0,109.8-49.3,109.8-109.8   S391.1,150.7,330.1,150.7z"/></g><text x="0" y="527" fill="#000000" font-size="5px" font-weight="bold" font-family="'Helvetica Neue', Helvetica, Arial-Unicode, Arial, Sans-serif">Created by Agni</text><text x="0" y="532" fill="#000000" font-size="5px" font-weight="bold" font-family="'Helvetica Neue', Helvetica, Arial-Unicode, Arial, Sans-serif">from the Noun Project</text></svg>